<?xml version="1.0" encoding="iso-8859-1"?>
<!-- Uploaded to: SVG Repo, www.svgrepo.com, Generator: SVG Repo Mixer Tools -->
<svg version="1.1" id="Layer_1" xmlns="http://www.w3.org/2000/svg" xmlns:xlink="http://www.w3.org/1999/xlink" 
	 viewBox="0 0 502 502" xml:space="preserve">
<g>
	<rect x="157.397" y="83.699" style="fill:#FCC54E;" width="187.205" height="54.373"/>
	<rect x="157.397" y="28.828" style="fill:#FCC54E;" width="187.205" height="54.373"/>
	<rect x="157.397" y="138.569" style="fill:#FCC54E;" width="187.205" height="54.373"/>
	<g>
		<rect x="10" y="352.672" style="fill:#FFFFFF;" width="68.857" height="89.299"/>
		<rect x="10" y="441.971" style="fill:#3CB7C6;" width="68.857" height="31.201"/>
	</g>
	<g>
		<rect x="216.571" y="352.672" style="fill:#FFFFFF;" width="68.857" height="89.299"/>
		<rect x="216.571" y="441.971" style="fill:#3CB7C6;" width="68.857" height="31.201"/>
	</g>
	<g>
		<rect x="423.143" y="352.672" style="fill:#FFFFFF;" width="68.857" height="89.299"/>
		<g>
			<rect x="423.143" y="441.971" style="fill:#3CB7C6;" width="68.857" height="31.201"/>
			<g>
				<path d="M147.397,192.942c0,5.523,4.477,10,10,10H241v12.016c0,5.523,4.477,10,10,10c5.523,0,10-4.477,10-10v-12.016h83.603
					c5.523,0,10-4.477,10-10V28.828c0-5.523-4.477-10-10-10H157.397c-5.523,0-10,4.477-10,10V192.942z M167.397,128.071V93.699
					h167.205v34.373L167.397,128.071L167.397,128.071z M334.603,182.942H167.397v-34.373h167.205v34.373H334.603z M167.397,38.828
					h167.205v34.373H167.397V38.828z"/>
				<path d="M398.397,266.284H44.429c-5.523,0-10,4.477-10,10c0,0.182,0.018,0.359,0.027,0.538c-0.01,0.179-0.027,0.356-0.027,0.538
					v41.96c0,5.523,4.477,10,10,10s10-4.477,10-10v-33.036H241v33.036c0,5.523,4.477,10,10,10c5.523,0,10-4.477,10-10v-33.036
					h137.397c5.523,0,10-4.477,10-10S403.92,266.284,398.397,266.284z"/>
				<path d="M251,232.931c-5.523,0-10,4.477-10,10v5.379c0,5.523,4.477,10,10,10c5.523,0,10-4.477,10-10v-5.379
					C261,237.408,256.523,232.931,251,232.931z"/>
				<path d="M437.129,286.284h10.442v33.036c0,5.523,4.477,10,10,10s10-4.477,10-10v-41.96c0-0.182-0.018-0.359-0.027-0.538
					c0.01-0.179,0.027-0.356,0.027-0.538c0-5.523-4.477-10-10-10h-20.442c-5.523,0-10,4.477-10,10S431.606,286.284,437.129,286.284z
					"/>
				<path d="M0,473.172c0,5.523,4.477,10,10,10h68.857c5.523,0,10-4.477,10-10v-120.5c0-5.523-4.477-10-10-10H10
					c-5.523,0-10,4.477-10,10V473.172z M20,362.672h48.857v69.299H20V362.672z M68.857,463.172H20v-11.201h48.857
					C68.857,451.971,68.857,463.172,68.857,463.172z"/>
				<path d="M295.429,352.672c0-5.523-4.477-10-10-10h-68.857c-5.523,0-10,4.477-10,10v120.5c0,5.523,4.477,10,10,10h68.857
					c5.523,0,10-4.477,10-10V352.672z M226.571,362.672h48.857v69.299h-48.857L226.571,362.672L226.571,362.672z M275.429,463.172
					h-48.857v-11.201h48.857V463.172z"/>
				<path d="M502,352.672c0-5.523-4.477-10-10-10h-68.857c-5.523,0-10,4.477-10,10v120.5c0,5.523,4.477,10,10,10H492
					c5.523,0,10-4.477,10-10V352.672z M433.143,362.672H482v69.299h-48.857V362.672z M482,463.172h-48.857v-11.201H482V463.172z"/>
			</g>
		</g>
	</g>
</g>
</svg>