<svg width="2201" height="2200" viewBox="0 0 2201 2200" fill="none" xmlns="http://www.w3.org/2000/svg">
<path d="M1740.59 819.167L1891.37 773.23C1848.08 791.972 1797.88 807.555 1740.59 819.167Z" fill="#D9D9D9"/>
<path d="M1740.59 819.167L1711.45 723.507C1660.4 739.06 1630.56 791.962 1643.65 843.699C1656.74 895.437 1708.15 927.776 1760.46 917.173L1740.59 819.167ZM1740.59 146.979L1706.6 241.023L1706.6 241.023L1740.59 146.979ZM1434.34 649.098C1489.57 649.098 1534.34 604.327 1534.34 549.098C1534.34 493.87 1489.57 449.098 1434.34 449.098V649.098ZM111.25 773.23L204.899 808.299L204.899 808.299L111.25 773.23ZM2051.35 1683.58L1958.32 1646.9L1958.32 1646.9L2051.35 1683.58ZM2043.48 1703.53L2136.51 1740.2L2136.51 1740.2L2043.48 1703.53ZM2041.07 1422.47L1950.91 1465.73L1950.91 1465.73L2041.07 1422.47ZM241.791 1059.21L198.325 1149.27L198.325 1149.27L241.791 1059.21ZM111.25 2000C56.0214 2000 11.2499 2044.77 11.2499 2100C11.2499 2155.23 56.0214 2200 111.25 2200V2000ZM111.25 0C56.0214 0 11.2499 44.7715 11.2499 100C11.2499 155.228 56.0214 200 111.25 200V0ZM111.25 1453.14C56.0214 1453.14 11.2499 1497.92 11.2499 1553.14C11.2499 1608.37 56.0214 1653.14 111.25 1653.14V1453.14ZM1629.65 1653.14C1684.88 1653.14 1729.65 1608.37 1729.65 1553.14C1729.65 1497.92 1684.88 1453.14 1629.65 1453.14L1629.65 1653.14ZM802.623 1553.14L802.623 1453.14H802.623V1553.14ZM1769.74 914.826L1920.52 868.89L1862.23 677.571L1711.45 723.507L1769.74 914.826ZM1706.6 241.023C1894.51 308.954 1979.58 410.454 1997.15 484.187C2005.4 518.809 2000.52 551.401 1981.38 582.331C1961.34 614.714 1921.78 651.103 1851.65 681.459L1931.1 865.002C2028.41 822.881 2104.67 763.169 2151.45 687.565C2199.13 610.509 2212.05 523.227 2191.7 437.826C2152.07 271.511 1994.31 132.364 1774.59 52.9354L1706.6 241.023ZM1851.65 681.459C1815.59 697.066 1772.17 710.731 1720.73 721.16L1760.46 917.173C1823.58 904.378 1880.56 886.878 1931.1 865.002L1851.65 681.459ZM1774.59 52.9354C1677.66 17.8966 1570.76 0 1463.12 0V200C1549.15 200 1632.9 214.383 1706.6 241.023L1774.59 52.9354ZM1434.34 449.098H535.5V649.098H1434.34V449.098ZM535.5 1201.75H1434.34V1001.75H535.5V1201.75ZM1958.32 1646.9L1950.45 1666.85L2136.51 1740.2L2144.38 1720.25L1958.32 1646.9ZM1950.45 1666.85C1915.69 1755.03 1835.12 1838.32 1714.83 1900.61C1595.32 1962.5 1442.93 2000 1277.81 2000V2200C1471.93 2200 1656.31 2156.14 1806.79 2078.22C1956.48 2000.7 2079.13 1885.76 2136.51 1740.2L1950.45 1666.85ZM1950.91 1465.73C1979.67 1525.67 1981.79 1587.35 1958.32 1646.9L2144.38 1720.25C2188.63 1608.01 2183.62 1488.41 2131.22 1379.21L1950.91 1465.73ZM1434.34 1201.75C1704.43 1201.75 1879.78 1317.5 1950.91 1465.73L2131.22 1379.21C2018.89 1145.09 1761.15 1001.75 1434.34 1001.75V1201.75ZM198.325 1149.27C223.714 1161.53 254.323 1169.61 281.034 1175.32C309.438 1181.39 340.768 1186.27 371.299 1190.08C431.874 1197.65 495.213 1201.75 535.5 1201.75V1001.75C505.275 1001.75 450.412 998.407 396.087 991.622C369.168 988.26 343.873 984.232 322.851 979.737C300.138 974.881 288.521 970.729 285.258 969.154L198.325 1149.27ZM17.6005 738.162C-10.551 813.339 -0.512132 898.464 29.6046 969.019C60.3295 1041 116.897 1109.97 198.325 1149.27L285.258 969.154C254.046 954.09 228.404 925.306 213.548 890.503C198.084 854.276 199.172 823.592 204.899 808.299L17.6005 738.162ZM535.5 449.098C312.823 449.098 87.7456 550.843 17.6005 738.162L204.899 808.299C233.449 732.058 354.402 649.098 535.5 649.098V449.098ZM1277.81 2000H111.25V2200H1277.81V2000ZM111.25 200H1463.12V0H111.25V200ZM111.25 1653.14H802.623V1453.14H111.25V1653.14ZM802.623 1653.14L1629.65 1653.14L1629.65 1453.14L802.623 1453.14L802.623 1653.14Z" fill="url(#paint0_linear_4_39)"/>
<defs>
<linearGradient id="paint0_linear_4_39" x1="1019.28" y1="-63.5676" x2="1019.28" y2="2100" gradientUnits="userSpaceOnUse">
<stop stop-color="#38B6FF"/>
<stop offset="1" stop-color="#34076B"/>
</linearGradient>
</defs>
</svg>
